<svg id="Layer_1" data-name="Layer 1" xmlns="http://www.w3.org/2000/svg" width="16.81" height="23.71" viewBox="0 0 16.81 23.71">
  <defs>
    <style>
      .cls-1 {
        opacity: 0.15;
        isolation: isolate;
      }

      .cls-2 {
        fill: #ec955a;
      }

      .cls-3 {
        fill: #5e2d2d;
      }

      .cls-4 {
        fill: #feddbd;
      }

      .cls-5 {
        fill: #ff9292;
      }
    </style>
  </defs>
  <title>activism</title>
  <path class="cls-1" d="M12,24s8.3-1.2,8.3-4-2.9-4.1-5.3-1.7A12,12,0,0,0,12,24Z" transform="translate(-3.59 -0.29)"/>
  <path class="cls-2" d="M4.3,8.5a24.67,24.67,0,0,0,3.4,8l4.4,6.6,4.3-6.8s3.3-5,3.3-7.8A7.81,7.81,0,0,0,12,1.1,7.38,7.38,0,0,0,4.3,8.5Z" transform="translate(-3.59 -0.29)"/>
  <path id="Layer_7" data-name="Layer 7" class="cls-3" d="M12,24l-.6-.8C9.9,21.3,3.6,12.8,3.6,8.7A8,8,0,0,1,11.3.3H12A8,8,0,0,1,20.4,8v.7c0,3.5-4.2,9.7-7.4,14ZM12,1.9A6.41,6.41,0,0,0,5.2,8v.7c0,2.9,4.4,9.6,6.8,12.7,2-2.7,6.8-9.5,6.8-12.7a6.41,6.41,0,0,0-6.1-6.8Z" transform="translate(-3.59 -0.29)"/>
  <g>
    <path class="cls-4" d="M17.9,8.5a5.9,5.9,0,0,1-1.5,3.9,4.35,4.35,0,0,1-.7.6,5.08,5.08,0,0,1-2.2,1.1,5.9,5.9,0,0,1-1.4.2,6.75,6.75,0,0,1-1.4-.2,5.13,5.13,0,0,1-3.1-2A5.88,5.88,0,0,1,6.3,8.5a5.8,5.8,0,0,1,11.6,0Z" transform="translate(-3.59 -0.29)"/>
    <path d="M14.9,11.7a7.46,7.46,0,0,1,.7-1.2,2.11,2.11,0,0,0,.5-1.3,6.6,6.6,0,0,1,.1-1.4c0-.6-.2-.9-.8-1-.9-.2-1.7-.3-2.6-.5a.42.42,0,0,0-.6.3,3.58,3.58,0,0,0-.4,1.1c-.2.7.2,1.1.9,1.1a5.27,5.27,0,0,0,1.2-.3.52.52,0,0,0,.4-.2c.1,0,.2.1.3.1a.35.35,0,0,1-.1.2.1.1,0,0,0-.1.1c-.5.1-1.1.3-1.6.4a1.52,1.52,0,0,1-1.3-.3.44.44,0,0,0-.5-.1,3.55,3.55,0,0,1-1,.2.37.37,0,0,0-.3.1,3,3,0,0,1-1,.4c-.2,0-.3.2-.2.4a12.66,12.66,0,0,0,.6,1.8,1.41,1.41,0,0,0,.6.7l5,.1v-.2C14.8,11.8,14.9,11.8,14.9,11.7Z" transform="translate(-3.59 -0.29)"/>
    <path class="cls-5" d="M15,12.4Z" transform="translate(-3.59 -0.29)"/>
    <path class="cls-5" d="M15,12.4Z" transform="translate(-3.59 -0.29)"/>
    <path d="M14.8,12.4h0l-5.3-.2a1.42,1.42,0,0,0,.6.2c.4,0,.7.1,1.1.1a.22.22,0,0,1,.2.2c0,.1-.1.2-.2.3h-.4c-.3-.1-.6-.1-1-.2h0l-.2,1a3.81,3.81,0,0,0,1,.3,6.75,6.75,0,0,0,1.4.2,6.15,6.15,0,0,0,1.4-.1,3.81,3.81,0,0,0,1.5-.5v-1Z" transform="translate(-3.59 -0.29)"/>
  </g>
  <g>
    <path d="M10.2,5.2c0-.5,0-.5-.4-.5H9.7c-.8,0-1,.4-.8,1.1A5,5,0,0,0,9.1,7c.1.4.1.7.5,1a.75.75,0,0,0,.8.1c.2-.1.3-.3.2-.7A3.59,3.59,0,0,1,10.2,5.2Z" transform="translate(-3.59 -0.29)"/>
    <path d="M8.6,7.2a2.49,2.49,0,0,1-.1-.8.27.27,0,0,0-.3-.3c-.3-.1-.6.1-.7.5a2.2,2.2,0,0,0-.1.8,1.27,1.27,0,0,0,.1.6,1,1,0,0,0,1.2.8c.3,0,.3-.2.3-.4A5.64,5.64,0,0,0,8.6,7.2Z" transform="translate(-3.59 -0.29)"/>
    <path d="M14.8,4.6l-1.1-.3c-.3,0-.4.1-.5.4s-.1.5-.1.7.1.5.4.5.8.1,1.2.2.4,0,.4-.3a2,2,0,0,1,.1-.7A.6.6,0,0,0,14.8,4.6Z" transform="translate(-3.59 -0.29)"/>
    <path d="M12.2,4h-.6a.73.73,0,0,0-.9.8v.9a1.64,1.64,0,0,0,.2,1c0,.1.1.2.2.3.1-.1.2-.1.3-.2.2-.3.3-.5.5-.8a1.34,1.34,0,0,1,.7-.6.45.45,0,0,0,.3-.3.64.64,0,0,0,0-.6A2.31,2.31,0,0,0,12.2,4Z" transform="translate(-3.59 -0.29)"/>
  </g>
</svg>
