<?xml version="1.0" encoding="utf-8"?>
<!-- Generator: Adobe Illustrator 23.0.1, SVG Export Plug-In . SVG Version: 6.00 Build 0)  -->
<svg version="1.1" id="Layer_1" xmlns="http://www.w3.org/2000/svg" xmlns:xlink="http://www.w3.org/1999/xlink" x="0px" y="0px"
	 viewBox="0 0 24 24" style="enable-background:new 0 0 24 24;" xml:space="preserve">
<style type="text/css">
	.st0{opacity:0.15;enable-background:new    ;}
	.st1{fill:#E8CD45;}
	.st2{fill:#423416;}
	.st3{fill:#FCF7DD;}
</style>
<path class="st0" d="M11.9,24c0,0,8.3-1.2,8.3-4s-2.9-4.2-5.3-1.7C12.4,20.7,11.9,24,11.9,24z"/>
<path class="st1" d="M4,8.4c0,0,0.8,4.1,3.4,8s4.4,6.6,4.4,6.6l4.4-6.8c0,0,3.4-5,3.4-7.8S17,1,11.9,1C6.7,1,4,4.9,4,8.4z"/>
<path id="Layer_7_4_" class="st2" d="M11.9,24l-0.6-0.8C9.8,21.3,3.5,12.8,3.5,8.6c-0.2-4.4,3.2-8.2,7.7-8.4c0.2,0,0.5,0,0.7,0
	c4.4-0.2,8.2,3.2,8.4,7.7c0,0.2,0,0.5,0,0.7c0,3.5-4.2,9.7-7.4,14.1L11.9,24z M11.7,1.8C8.1,1.6,5.1,4.3,4.9,7.9c0,0.2,0,0.5,0,0.7
	c0,2.9,4.4,9.6,6.8,12.8c2-2.7,6.9-9.5,6.9-12.8C18.8,5,16.1,2,12.5,1.8C12.3,1.8,12,1.8,11.7,1.8L11.7,1.8z"/>
<path class="st3" d="M10,10.1h0.2c0.4,0.3,0.9,0.4,1.5,0.4c0.5,0,1-0.2,1.5-0.4h0.2c1.1,0.3,2.4,0.8,2.6,1.5
	c0.1,0.2,0.1,0.4,0.2,0.7c0.9-1,1.5-2.4,1.5-3.9c0-3.2-2.6-5.8-5.8-5.8c-3.2,0-5.8,2.6-5.8,5.8c0,1.4,0.5,2.6,1.3,3.6
	c0-0.2,0.1-0.3,0.1-0.4C7.6,11,9,10.5,10,10.1z M11.6,4.4c1.3,0,2.3,1.2,2.3,2.7s-1,2.7-2.3,2.7S9.3,8.6,9.3,7.1S10.4,4.4,11.6,4.4z
	"/>
<ellipse cx="11.6" cy="7.1" rx="2.3" ry="2.7"/>
<path d="M16.3,12.3c-0.8,0.8-1.8,1.5-2.9,1.7c-0.4,0.1-0.9,0.2-1.4,0.2s-0.9-0.1-1.4-0.2c-1.3-0.3-2.4-1-3.2-2
	c0-0.2,0.1-0.3,0.1-0.4c0.3-0.7,1.5-1.2,2.6-1.5h0.2c0.4,0.3,0.9,0.4,1.5,0.4s1-0.2,1.4-0.4h0.2c1.1,0.3,2.4,0.8,2.6,1.5
	C16.2,11.7,16.2,12,16.3,12.3z"/>
</svg>
